<?xml version="1.0" standalone="no"?><!DOCTYPE svg PUBLIC "-//W3C//DTD SVG 1.1//EN" "http://www.w3.org/Graphics/SVG/1.1/DTD/svg11.dtd"><svg xmlns:xlink="http://www.w3.org/1999/xlink" xmlns="http://www.w3.org/2000/svg" version="1.1" width="860" height="500"><defs><clipPath id="highcharts-4"><rect rx="0" ry="0" fill="none" x="0" y="0" width="790" height="380" stroke-width="0.000001"></rect></clipPath></defs><rect rx="5" ry="5" fill="#FFFFFF" x="0" y="0" width="860" height="500" stroke-width="0.000001" stroke="#4572A7"></rect><g class="highcharts-grid" ></g><g class="highcharts-grid" ><path d="M 60 356.5 L 850 356.5" fill="none" stroke="#C0C0C0" stroke-width="1" ></path><path d="M 60 293.5 L 850 293.5" fill="none" stroke="#C0C0C0" stroke-width="1" ></path><path d="M 60 230.5 L 850 230.5" fill="none" stroke="#C0C0C0" stroke-width="1" ></path><path d="M 60 166.5 L 850 166.5" fill="none" stroke="#C0C0C0" stroke-width="1" ></path><path d="M 60 103.5 L 850 103.5" fill="none" stroke="#C0C0C0" stroke-width="1" ></path><path d="M 60 40.5 L 850 40.5" fill="none" stroke="#C0C0C0" stroke-width="1" ></path><path d="M 60 419.5 L 850 419.5" fill="none" stroke="#C0C0C0" stroke-width="1" ></path></g><g class="highcharts-series-group" ><g class="highcharts-series" visibility="visible" transform="translate(60,40)" clip-path="url(#highcharts-4)"><path d="M 275.8 209.1 L 298.3 209.1 298.3 199.6 L 312.8 199.6 312.8 199.6 L 325.3 199.6 325.3 195.8 L 337.6 195.8 337.6 194.6 L 348.3 194.6 348.3 184.4 L 357.3 184.4 357.3 177.5 L 371.6 177.5 371.6 175.6 L 382.3 175.6 382.3 155.4 L 398.9 155.4 398.9 147.8 L 405.5 147.8 405.5 135.8 L 418 135.8 418 133.3 L 432.6 133.3 432.6 133.3 L 444.8 133.3 444.8 133.3 L 455.6 133.3 455.6 133.3 L 466.3 133.3 466.3 130.1 L 477 130.1 477 125.7 L 493.1 125.7 493.1 123.8 L 502.6 123.8 502.6 120 L 514.6 120 514.6 116.9 L 525.3 116.9 525.3 115.6 L 539.8 115.6 539.8 112.4 L 553.9 112.4 553.9 106.1 L 561 106.1 561 98.5 L 571.8 98.5 571.8 97.3 L 588.1 97.3 588.1 91 L 598.6 91 598.6 85.9 L 609.3 85.9 609.3 79 L 618.2 79 618.2 76.4 L 634.3 76.4 634.3 76.4 L 645 76.4 645 74.5 L 655.8 74.5 655.8 74.5 L 668.3 74.5 668.3 72 L 681.1 72 681.1 72 L 691.8 72 691.8 70.1 L 702.5 70.1 702.5 70.1 L 713.2 70.1 713.2 68.2 L 727.5 68.2 727.5 68.2" fill="none" stroke="rgb(0, 0, 0)" stroke-width="5"  stroke-opacity="0.05" transform="translate(1,1)"></path><path d="M 275.8 209.1 L 298.3 209.1 298.3 199.6 L 312.8 199.6 312.8 199.6 L 325.3 199.6 325.3 195.8 L 337.6 195.8 337.6 194.6 L 348.3 194.6 348.3 184.4 L 357.3 184.4 357.3 177.5 L 371.6 177.5 371.6 175.6 L 382.3 175.6 382.3 155.4 L 398.9 155.4 398.9 147.8 L 405.5 147.8 405.5 135.8 L 418 135.8 418 133.3 L 432.6 133.3 432.6 133.3 L 444.8 133.3 444.8 133.3 L 455.6 133.3 455.6 133.3 L 466.3 133.3 466.3 130.1 L 477 130.1 477 125.7 L 493.1 125.7 493.1 123.8 L 502.6 123.8 502.6 120 L 514.6 120 514.6 116.9 L 525.3 116.9 525.3 115.6 L 539.8 115.6 539.8 112.4 L 553.9 112.4 553.9 106.1 L 561 106.1 561 98.5 L 571.8 98.5 571.8 97.3 L 588.1 97.3 588.1 91 L 598.6 91 598.6 85.9 L 609.3 85.9 609.3 79 L 618.2 79 618.2 76.4 L 634.3 76.4 634.3 76.4 L 645 76.4 645 74.5 L 655.8 74.5 655.8 74.5 L 668.3 74.5 668.3 72 L 681.1 72 681.1 72 L 691.8 72 691.8 70.1 L 702.5 70.1 702.5 70.1 L 713.2 70.1 713.2 68.2 L 727.5 68.2 727.5 68.2" fill="none" stroke="rgb(0, 0, 0)" stroke-width="3"  stroke-opacity="0.1" transform="translate(1,1)"></path><path d="M 275.8 209.1 L 298.3 209.1 298.3 199.6 L 312.8 199.6 312.8 199.6 L 325.3 199.6 325.3 195.8 L 337.6 195.8 337.6 194.6 L 348.3 194.6 348.3 184.4 L 357.3 184.4 357.3 177.5 L 371.6 177.5 371.6 175.6 L 382.3 175.6 382.3 155.4 L 398.9 155.4 398.9 147.8 L 405.5 147.8 405.5 135.8 L 418 135.8 418 133.3 L 432.6 133.3 432.6 133.3 L 444.8 133.3 444.8 133.3 L 455.6 133.3 455.6 133.3 L 466.3 133.3 466.3 130.1 L 477 130.1 477 125.7 L 493.1 125.7 493.1 123.8 L 502.6 123.8 502.6 120 L 514.6 120 514.6 116.9 L 525.3 116.9 525.3 115.6 L 539.8 115.6 539.8 112.4 L 553.9 112.4 553.9 106.1 L 561 106.1 561 98.5 L 571.8 98.5 571.8 97.3 L 588.1 97.3 588.1 91 L 598.6 91 598.6 85.9 L 609.3 85.9 609.3 79 L 618.2 79 618.2 76.4 L 634.3 76.4 634.3 76.4 L 645 76.4 645 74.5 L 655.8 74.5 655.8 74.5 L 668.3 74.5 668.3 72 L 681.1 72 681.1 72 L 691.8 72 691.8 70.1 L 702.5 70.1 702.5 70.1 L 713.2 70.1 713.2 68.2 L 727.5 68.2 727.5 68.2" fill="none" stroke="rgb(0, 0, 0)" stroke-width="1"  stroke-opacity="0.15000000000000002" transform="translate(1,1)"></path><path d="M 275.8 209.1 L 298.3 209.1 298.3 199.6 L 312.8 199.6 312.8 199.6 L 325.3 199.6 325.3 195.8 L 337.6 195.8 337.6 194.6 L 348.3 194.6 348.3 184.4 L 357.3 184.4 357.3 177.5 L 371.6 177.5 371.6 175.6 L 382.3 175.6 382.3 155.4 L 398.9 155.4 398.9 147.8 L 405.5 147.8 405.5 135.8 L 418 135.8 418 133.3 L 432.6 133.3 432.6 133.3 L 444.8 133.3 444.8 133.3 L 455.6 133.3 455.6 133.3 L 466.3 133.3 466.3 130.1 L 477 130.1 477 125.7 L 493.1 125.7 493.1 123.8 L 502.6 123.8 502.6 120 L 514.6 120 514.6 116.9 L 525.3 116.9 525.3 115.6 L 539.8 115.6 539.8 112.4 L 553.9 112.4 553.9 106.1 L 561 106.1 561 98.5 L 571.8 98.5 571.8 97.3 L 588.1 97.3 588.1 91 L 598.6 91 598.6 85.9 L 609.3 85.9 609.3 79 L 618.2 79 618.2 76.4 L 634.3 76.4 634.3 76.4 L 645 76.4 645 74.5 L 655.8 74.5 655.8 74.5 L 668.3 74.5 668.3 72 L 681.1 72 681.1 72 L 691.8 72 691.8 70.1 L 702.5 70.1 702.5 70.1 L 713.2 70.1 713.2 68.2 L 727.5 68.2 727.5 68.2" fill="none" stroke="#4572A7" stroke-width="2"></path><path d="M 727.5 64.2 C 732.828 64.2 732.828 72.2 727.5 72.2 C 722.172 72.2 722.172 64.2 727.5 64.2 Z" fill="#4572A7" stroke="#FFFFFF" stroke-width="0.000001"></path><path d="M 713.2 64.2 C 718.528 64.2 718.528 72.2 713.2 72.2 C 707.8720000000001 72.2 707.8720000000001 64.2 713.2 64.2 Z" fill="#4572A7" stroke="#FFFFFF" stroke-width="0.000001"></path><path d="M 702.5 66.1 C 707.828 66.1 707.828 74.1 702.5 74.1 C 697.172 74.1 697.172 66.1 702.5 66.1 Z" fill="#4572A7" stroke="#FFFFFF" stroke-width="0.000001"></path><path d="M 691.8 66.1 C 697.1279999999999 66.1 697.1279999999999 74.1 691.8 74.1 C 686.472 74.1 686.472 66.1 691.8 66.1 Z" fill="#4572A7" stroke="#FFFFFF" stroke-width="0.000001"></path><path d="M 681.1 68 C 686.428 68 686.428 76 681.1 76 C 675.772 76 675.772 68 681.1 68 Z" fill="#4572A7" stroke="#FFFFFF" stroke-width="0.000001"></path><path d="M 668.3 68 C 673.6279999999999 68 673.6279999999999 76 668.3 76 C 662.972 76 662.972 68 668.3 68 Z" fill="#4572A7" stroke="#FFFFFF" stroke-width="0.000001"></path><path d="M 655.8 70.5 C 661.1279999999999 70.5 661.1279999999999 78.5 655.8 78.5 C 650.472 78.5 650.472 70.5 655.8 70.5 Z" fill="#4572A7" stroke="#FFFFFF" stroke-width="0.000001"></path><path d="M 645 70.5 C 650.328 70.5 650.328 78.5 645 78.5 C 639.672 78.5 639.672 70.5 645 70.5 Z" fill="#4572A7" stroke="#FFFFFF" stroke-width="0.000001"></path><path d="M 634.3 72.4 C 639.6279999999999 72.4 639.6279999999999 80.4 634.3 80.4 C 628.972 80.4 628.972 72.4 634.3 72.4 Z" fill="#4572A7" stroke="#FFFFFF" stroke-width="0.000001"></path><path d="M 618.2 72.4 C 623.528 72.4 623.528 80.4 618.2 80.4 C 612.8720000000001 80.4 612.8720000000001 72.4 618.2 72.4 Z" fill="#4572A7" stroke="#FFFFFF" stroke-width="0.000001"></path><path d="M 609.3 75 C 614.6279999999999 75 614.6279999999999 83 609.3 83 C 603.972 83 603.972 75 609.3 75 Z" fill="#4572A7" stroke="#FFFFFF" stroke-width="0.000001"></path><path d="M 598.6 81.9 C 603.928 81.9 603.928 89.9 598.6 89.9 C 593.272 89.9 593.272 81.9 598.6 81.9 Z" fill="#4572A7" stroke="#FFFFFF" stroke-width="0.000001"></path><path d="M 588.1 87 C 593.428 87 593.428 95 588.1 95 C 582.772 95 582.772 87 588.1 87 Z" fill="#4572A7" stroke="#FFFFFF" stroke-width="0.000001"></path><path d="M 571.8 93.3 C 577.1279999999999 93.3 577.1279999999999 101.3 571.8 101.3 C 566.472 101.3 566.472 93.3 571.8 93.3 Z" fill="#4572A7" stroke="#FFFFFF" stroke-width="0.000001"></path><path d="M 561 94.5 C 566.328 94.5 566.328 102.5 561 102.5 C 555.672 102.5 555.672 94.5 561 94.5 Z" fill="#4572A7" stroke="#FFFFFF" stroke-width="0.000001"></path><path d="M 553.9 102.1 C 559.228 102.1 559.228 110.1 553.9 110.1 C 548.572 110.1 548.572 102.1 553.9 102.1 Z" fill="#4572A7" stroke="#FFFFFF" stroke-width="0.000001"></path><path d="M 539.8 108.4 C 545.1279999999999 108.4 545.1279999999999 116.4 539.8 116.4 C 534.472 116.4 534.472 108.4 539.8 108.4 Z" fill="#4572A7" stroke="#FFFFFF" stroke-width="0.000001"></path><path d="M 525.3 111.6 C 530.6279999999999 111.6 530.6279999999999 119.6 525.3 119.6 C 519.972 119.6 519.972 111.6 525.3 111.6 Z" fill="#4572A7" stroke="#FFFFFF" stroke-width="0.000001"></path><path d="M 514.6 112.9 C 519.928 112.9 519.928 120.9 514.6 120.9 C 509.27200000000005 120.9 509.27200000000005 112.9 514.6 112.9 Z" fill="#4572A7" stroke="#FFFFFF" stroke-width="0.000001"></path><path d="M 502.6 116 C 507.928 116 507.928 124 502.6 124 C 497.27200000000005 124 497.27200000000005 116 502.6 116 Z" fill="#4572A7" stroke="#FFFFFF" stroke-width="0.000001"></path><path d="M 493.1 119.8 C 498.428 119.8 498.428 127.8 493.1 127.8 C 487.77200000000005 127.8 487.77200000000005 119.8 493.1 119.8 Z" fill="#4572A7" stroke="#FFFFFF" stroke-width="0.000001"></path><path d="M 477 121.7 C 482.328 121.7 482.328 129.7 477 129.7 C 471.672 129.7 471.672 121.7 477 121.7 Z" fill="#4572A7" stroke="#FFFFFF" stroke-width="0.000001"></path><path d="M 466.3 126.1 C 471.628 126.1 471.628 134.1 466.3 134.1 C 460.97200000000004 134.1 460.97200000000004 126.1 466.3 126.1 Z" fill="#4572A7" stroke="#FFFFFF" stroke-width="0.000001"></path><path d="M 455.6 129.3 C 460.928 129.3 460.928 137.3 455.6 137.3 C 450.27200000000005 137.3 450.27200000000005 129.3 455.6 129.3 Z" fill="#4572A7" stroke="#FFFFFF" stroke-width="0.000001"></path><path d="M 444.8 129.3 C 450.128 129.3 450.128 137.3 444.8 137.3 C 439.47200000000004 137.3 439.47200000000004 129.3 444.8 129.3 Z" fill="#4572A7" stroke="#FFFFFF" stroke-width="0.000001"></path><path d="M 432.6 129.3 C 437.928 129.3 437.928 137.3 432.6 137.3 C 427.27200000000005 137.3 427.27200000000005 129.3 432.6 129.3 Z" fill="#4572A7" stroke="#FFFFFF" stroke-width="0.000001"></path><path d="M 418 129.3 C 423.328 129.3 423.328 137.3 418 137.3 C 412.672 137.3 412.672 129.3 418 129.3 Z" fill="#4572A7" stroke="#FFFFFF" stroke-width="0.000001"></path><path d="M 405.5 131.8 C 410.828 131.8 410.828 139.8 405.5 139.8 C 400.172 139.8 400.172 131.8 405.5 131.8 Z" fill="#4572A7" stroke="#FFFFFF" stroke-width="0.000001"></path><path d="M 398.9 143.8 C 404.22799999999995 143.8 404.22799999999995 151.8 398.9 151.8 C 393.572 151.8 393.572 143.8 398.9 143.8 Z" fill="#4572A7" stroke="#FFFFFF" stroke-width="0.000001"></path><path d="M 382.3 151.4 C 387.628 151.4 387.628 159.4 382.3 159.4 C 376.97200000000004 159.4 376.97200000000004 151.4 382.3 151.4 Z" fill="#4572A7" stroke="#FFFFFF" stroke-width="0.000001"></path><path d="M 371.6 171.6 C 376.928 171.6 376.928 179.6 371.6 179.6 C 366.27200000000005 179.6 366.27200000000005 171.6 371.6 171.6 Z" fill="#4572A7" stroke="#FFFFFF" stroke-width="0.000001"></path><path d="M 357.3 173.5 C 362.628 173.5 362.628 181.5 357.3 181.5 C 351.97200000000004 181.5 351.97200000000004 173.5 357.3 173.5 Z" fill="#4572A7" stroke="#FFFFFF" stroke-width="0.000001"></path><path d="M 348.3 180.4 C 353.628 180.4 353.628 188.4 348.3 188.4 C 342.97200000000004 188.4 342.97200000000004 180.4 348.3 180.4 Z" fill="#4572A7" stroke="#FFFFFF" stroke-width="0.000001"></path><path d="M 337.6 190.6 C 342.928 190.6 342.928 198.6 337.6 198.6 C 332.27200000000005 198.6 332.27200000000005 190.6 337.6 190.6 Z" fill="#4572A7" stroke="#FFFFFF" stroke-width="0.000001"></path><path d="M 325.3 191.8 C 330.628 191.8 330.628 199.8 325.3 199.8 C 319.97200000000004 199.8 319.97200000000004 191.8 325.3 191.8 Z" fill="#4572A7" stroke="#FFFFFF" stroke-width="0.000001"></path><path d="M 312.8 195.6 C 318.128 195.6 318.128 203.6 312.8 203.6 C 307.47200000000004 203.6 307.47200000000004 195.6 312.8 195.6 Z" fill="#4572A7" stroke="#FFFFFF" stroke-width="0.000001"></path><path d="M 298.3 195.6 C 303.628 195.6 303.628 203.6 298.3 203.6 C 292.97200000000004 203.6 292.97200000000004 195.6 298.3 195.6 Z" fill="#4572A7" stroke="#FFFFFF" stroke-width="0.000001"></path><path d="M 275.8 205.1 C 281.128 205.1 281.128 213.1 275.8 213.1 C 270.47200000000004 213.1 270.47200000000004 205.1 275.8 205.1 Z" fill="#4572A7" stroke="#FFFFFF" stroke-width="0.000001"></path></g><g class="highcharts-series" visibility="visible" transform="translate(60,40)" clip-path="url(#highcharts-4)"><path d="M -661.9 367 L -182.3 367 -182.3 367 L 43.2 367 43.2 358.2 L 228.3 358.2 228.3 307.6 L 379.5 307.6 379.5 211.6 L 470.4 211.6 470.4 181.9 L 636.4 181.9 636.4 140.9 L 661.6 140.9 661.6 105.5 L 730.9 105.5 730.9 88.4 L 782.2 88.4 782.2 80.2" fill="none" stroke="rgb(0, 0, 0)" stroke-width="5"  stroke-opacity="0.05" transform="translate(1,1)"></path><path d="M -661.9 367 L -182.3 367 -182.3 367 L 43.2 367 43.2 358.2 L 228.3 358.2 228.3 307.6 L 379.5 307.6 379.5 211.6 L 470.4 211.6 470.4 181.9 L 636.4 181.9 636.4 140.9 L 661.6 140.9 661.6 105.5 L 730.9 105.5 730.9 88.4 L 782.2 88.4 782.2 80.2" fill="none" stroke="rgb(0, 0, 0)" stroke-width="3"  stroke-opacity="0.1" transform="translate(1,1)"></path><path d="M -661.9 367 L -182.3 367 -182.3 367 L 43.2 367 43.2 358.2 L 228.3 358.2 228.3 307.6 L 379.5 307.6 379.5 211.6 L 470.4 211.6 470.4 181.9 L 636.4 181.9 636.4 140.9 L 661.6 140.9 661.6 105.5 L 730.9 105.5 730.9 88.4 L 782.2 88.4 782.2 80.2" fill="none" stroke="rgb(0, 0, 0)" stroke-width="1"  stroke-opacity="0.15000000000000002" transform="translate(1,1)"></path><path d="M -661.9 367 L -182.3 367 -182.3 367 L 43.2 367 43.2 358.2 L 228.3 358.2 228.3 307.6 L 379.5 307.6 379.5 211.6 L 470.4 211.6 470.4 181.9 L 636.4 181.9 636.4 140.9 L 661.6 140.9 661.6 105.5 L 730.9 105.5 730.9 88.4 L 782.2 88.4 782.2 80.2" fill="none" stroke="#AA4643" stroke-width="2"></path><path d="M 782.2 76.2 L 786.2 80.2 782.2 84.2 778.2 80.2 Z" fill="#AA4643" stroke="#FFFFFF" stroke-width="0.000001"></path><path d="M 730.9 84.4 L 734.9 88.4 730.9 92.4 726.9 88.4 Z" fill="#AA4643" stroke="#FFFFFF" stroke-width="0.000001"></path><path d="M 661.6 101.5 L 665.6 105.5 661.6 109.5 657.6 105.5 Z" fill="#AA4643" stroke="#FFFFFF" stroke-width="0.000001"></path><path d="M 636.4 136.9 L 640.4 140.9 636.4 144.9 632.4 140.9 Z" fill="#AA4643" stroke="#FFFFFF" stroke-width="0.000001"></path><path d="M 470.4 177.9 L 474.4 181.9 470.4 185.9 466.4 181.9 Z" fill="#AA4643" stroke="#FFFFFF" stroke-width="0.000001"></path><path d="M 379.5 207.6 L 383.5 211.6 379.5 215.6 375.5 211.6 Z" fill="#AA4643" stroke="#FFFFFF" stroke-width="0.000001"></path><path d="M 228.3 303.6 L 232.3 307.6 228.3 311.6 224.3 307.6 Z" fill="#AA4643" stroke="#FFFFFF" stroke-width="0.000001"></path><path d="M 43.2 354.2 L 47.2 358.2 43.2 362.2 39.2 358.2 Z" fill="#AA4643" stroke="#FFFFFF" stroke-width="0.000001"></path><path d="M -182.3 363 L -178.3 367 -182.3 371 -186.3 367 Z" fill="#AA4643" stroke="#FFFFFF" stroke-width="0.000001"></path><path d="M -661.9 363 L -657.9 367 -661.9 371 -665.9 367 Z" fill="#AA4643" stroke="#FFFFFF" stroke-width="0.000001"></path></g><g class="highcharts-series" visibility="visible" transform="translate(60,40)" clip-path="url(#highcharts-4)"><path d="M 121.8 289.3 L 230.3 289.3 230.3 243.2 L 253.6 243.2 253.6 236.9 L 267.9 236.9 267.9 220.5 L 278.6 220.5 278.6 219.2 L 289.3 219.2 289.3 216.7 L 300.1 216.7 300.1 214.8 L 310.8 214.8 310.8 213.5 L 321.5 213.5 321.5 205.9 L 332.2 205.9 332.2 205.9 L 343 205.9 343 205.9 L 348.3 205.9 348.3 203.4 L 364.4 203.4 364.4 202.1 L 375.1 202.1 375.1 195.2 L 388.4 195.2 388.4 186.3 L 400.9 186.3 400.9 175 L 409.1 175 409.1 175 L 419.8 175 419.8 171.2 L 432.3 171.2 432.3 170.5 L 441.3 170.5 441.3 161.1 L 452 161.1 452 156 L 462.7 156 462.7 157.3 L 472.4 157.3 472.4 150.3 L 484.2 150.3 484.2 150.3 L 498.5 150.3 498.5 149.1 L 509.2 149.1 509.2 149.1 L 519.9 149.1 519.9 140.2 L 530.6 140.2 530.6 140.2 L 541.4 140.2 541.4 132.6 L 552.1 132.6 552.1 132 L 562.8 132 562.8 132 L 575.1 132 575.1 128.2 L 586.3 128.2 586.3 128.2 L 596.8 128.2 596.8 125.1 L 605.7 125.1 605.7 125.1 L 616.4 125.1 616.4 113.7 L 629.5 113.7 629.5 108 L 639.7 108 639.7 108 L 650.4 108 650.4 108 L 661.1 108 661.1 104.9 L 671.9 104.9 671.9 103.6 L 682.6 103.6 682.6 91.6 L 693.3 91.6 693.3 91 L 705.8 91 705.8 91 L 716.5 91 716.5 91 L 730.9 91 730.9 87.8" fill="none" stroke="rgb(0, 0, 0)" stroke-width="5"  stroke-opacity="0.05" transform="translate(1,1)"></path><path d="M 121.8 289.3 L 230.3 289.3 230.3 243.2 L 253.6 243.2 253.6 236.9 L 267.9 236.9 267.9 220.5 L 278.6 220.5 278.6 219.2 L 289.3 219.2 289.3 216.7 L 300.1 216.7 300.1 214.8 L 310.8 214.8 310.8 213.5 L 321.5 213.5 321.5 205.9 L 332.2 205.9 332.2 205.9 L 343 205.9 343 205.9 L 348.3 205.9 348.3 203.4 L 364.4 203.4 364.4 202.1 L 375.1 202.1 375.1 195.2 L 388.4 195.2 388.4 186.3 L 400.9 186.3 400.9 175 L 409.1 175 409.1 175 L 419.8 175 419.8 171.2 L 432.3 171.2 432.3 170.5 L 441.3 170.5 441.3 161.1 L 452 161.1 452 156 L 462.7 156 462.7 157.3 L 472.4 157.3 472.4 150.3 L 484.2 150.3 484.2 150.3 L 498.5 150.3 498.5 149.1 L 509.2 149.1 509.2 149.1 L 519.9 149.1 519.9 140.2 L 530.6 140.2 530.6 140.2 L 541.4 140.2 541.4 132.6 L 552.1 132.6 552.1 132 L 562.8 132 562.8 132 L 575.1 132 575.1 128.2 L 586.3 128.2 586.3 128.2 L 596.8 128.2 596.8 125.1 L 605.7 125.1 605.7 125.1 L 616.4 125.1 616.4 113.7 L 629.5 113.7 629.5 108 L 639.7 108 639.7 108 L 650.4 108 650.4 108 L 661.1 108 661.1 104.9 L 671.9 104.9 671.9 103.6 L 682.6 103.6 682.6 91.6 L 693.3 91.6 693.3 91 L 705.8 91 705.8 91 L 716.5 91 716.5 91 L 730.9 91 730.9 87.8" fill="none" stroke="rgb(0, 0, 0)" stroke-width="3"  stroke-opacity="0.1" transform="translate(1,1)"></path><path d="M 121.8 289.3 L 230.3 289.3 230.3 243.2 L 253.6 243.2 253.6 236.9 L 267.9 236.9 267.9 220.5 L 278.6 220.5 278.6 219.2 L 289.3 219.2 289.3 216.7 L 300.1 216.7 300.1 214.8 L 310.8 214.8 310.8 213.5 L 321.5 213.5 321.5 205.9 L 332.2 205.9 332.2 205.9 L 343 205.9 343 205.9 L 348.3 205.9 348.3 203.4 L 364.4 203.4 364.4 202.1 L 375.1 202.1 375.1 195.2 L 388.4 195.2 388.4 186.3 L 400.9 186.3 400.9 175 L 409.1 175 409.1 175 L 419.8 175 419.8 171.2 L 432.3 171.2 432.3 170.5 L 441.3 170.5 441.3 161.1 L 452 161.1 452 156 L 462.7 156 462.7 157.3 L 472.4 157.3 472.4 150.3 L 484.2 150.3 484.2 150.3 L 498.5 150.3 498.5 149.1 L 509.2 149.1 509.2 149.1 L 519.9 149.1 519.9 140.2 L 530.6 140.2 530.6 140.2 L 541.4 140.2 541.4 132.6 L 552.1 132.6 552.1 132 L 562.8 132 562.8 132 L 575.1 132 575.1 128.2 L 586.3 128.2 586.3 128.2 L 596.8 128.2 596.8 125.1 L 605.7 125.1 605.7 125.1 L 616.4 125.1 616.4 113.7 L 629.5 113.7 629.5 108 L 639.7 108 639.7 108 L 650.4 108 650.4 108 L 661.1 108 661.1 104.9 L 671.9 104.9 671.9 103.6 L 682.6 103.6 682.6 91.6 L 693.3 91.6 693.3 91 L 705.8 91 705.8 91 L 716.5 91 716.5 91 L 730.9 91 730.9 87.8" fill="none" stroke="rgb(0, 0, 0)" stroke-width="1"  stroke-opacity="0.15000000000000002" transform="translate(1,1)"></path><path d="M 121.8 289.3 L 230.3 289.3 230.3 243.2 L 253.6 243.2 253.6 236.9 L 267.9 236.9 267.9 220.5 L 278.6 220.5 278.6 219.2 L 289.3 219.2 289.3 216.7 L 300.1 216.7 300.1 214.8 L 310.8 214.8 310.8 213.5 L 321.5 213.5 321.5 205.9 L 332.2 205.9 332.2 205.9 L 343 205.9 343 205.9 L 348.3 205.9 348.3 203.4 L 364.4 203.4 364.4 202.1 L 375.1 202.1 375.1 195.2 L 388.4 195.2 388.4 186.3 L 400.9 186.3 400.9 175 L 409.1 175 409.1 175 L 419.8 175 419.8 171.2 L 432.3 171.2 432.3 170.5 L 441.3 170.5 441.3 161.1 L 452 161.1 452 156 L 462.7 156 462.7 157.3 L 472.4 157.3 472.4 150.3 L 484.2 150.3 484.2 150.3 L 498.5 150.3 498.5 149.1 L 509.2 149.1 509.2 149.1 L 519.9 149.1 519.9 140.2 L 530.6 140.2 530.6 140.2 L 541.4 140.2 541.4 132.6 L 552.1 132.6 552.1 132 L 562.8 132 562.8 132 L 575.1 132 575.1 128.2 L 586.3 128.2 586.3 128.2 L 596.8 128.2 596.8 125.1 L 605.7 125.1 605.7 125.1 L 616.4 125.1 616.4 113.7 L 629.5 113.7 629.5 108 L 639.7 108 639.7 108 L 650.4 108 650.4 108 L 661.1 108 661.1 104.9 L 671.9 104.9 671.9 103.6 L 682.6 103.6 682.6 91.6 L 693.3 91.6 693.3 91 L 705.8 91 705.8 91 L 716.5 91 716.5 91 L 730.9 91 730.9 87.8" fill="none" stroke="#89A54E" stroke-width="2"></path><path d="M 726.9 83.8 L 734.9 83.8 734.9 91.8 726.9 91.8 Z" fill="#89A54E" stroke="#FFFFFF" stroke-width="0.000001"></path><path d="M 712.5 87 L 720.5 87 720.5 95 712.5 95 Z" fill="#89A54E" stroke="#FFFFFF" stroke-width="0.000001"></path><path d="M 701.8 87 L 709.8 87 709.8 95 701.8 95 Z" fill="#89A54E" stroke="#FFFFFF" stroke-width="0.000001"></path><path d="M 689.3 87 L 697.3 87 697.3 95 689.3 95 Z" fill="#89A54E" stroke="#FFFFFF" stroke-width="0.000001"></path><path d="M 678.6 87.6 L 686.6 87.6 686.6 95.6 678.6 95.6 Z" fill="#89A54E" stroke="#FFFFFF" stroke-width="0.000001"></path><path d="M 667.9 99.6 L 675.9 99.6 675.9 107.6 667.9 107.6 Z" fill="#89A54E" stroke="#FFFFFF" stroke-width="0.000001"></path><path d="M 657.1 100.9 L 665.1 100.9 665.1 108.9 657.1 108.9 Z" fill="#89A54E" stroke="#FFFFFF" stroke-width="0.000001"></path><path d="M 646.4 104 L 654.4 104 654.4 112 646.4 112 Z" fill="#89A54E" stroke="#FFFFFF" stroke-width="0.000001"></path><path d="M 635.7 104 L 643.7 104 643.7 112 635.7 112 Z" fill="#89A54E" stroke="#FFFFFF" stroke-width="0.000001"></path><path d="M 625.5 104 L 633.5 104 633.5 112 625.5 112 Z" fill="#89A54E" stroke="#FFFFFF" stroke-width="0.000001"></path><path d="M 612.4 109.7 L 620.4 109.7 620.4 117.7 612.4 117.7 Z" fill="#89A54E" stroke="#FFFFFF" stroke-width="0.000001"></path><path d="M 601.7 121.1 L 609.7 121.1 609.7 129.1 601.7 129.1 Z" fill="#89A54E" stroke="#FFFFFF" stroke-width="0.000001"></path><path d="M 592.8 121.1 L 600.8 121.1 600.8 129.1 592.8 129.1 Z" fill="#89A54E" stroke="#FFFFFF" stroke-width="0.000001"></path><path d="M 582.3 124.19999999999999 L 590.3 124.19999999999999 590.3 132.2 582.3 132.2 Z" fill="#89A54E" stroke="#FFFFFF" stroke-width="0.000001"></path><path d="M 571.1 124.19999999999999 L 579.1 124.19999999999999 579.1 132.2 571.1 132.2 Z" fill="#89A54E" stroke="#FFFFFF" stroke-width="0.000001"></path><path d="M 558.8 128 L 566.8 128 566.8 136 558.8 136 Z" fill="#89A54E" stroke="#FFFFFF" stroke-width="0.000001"></path><path d="M 548.1 128 L 556.1 128 556.1 136 548.1 136 Z" fill="#89A54E" stroke="#FFFFFF" stroke-width="0.000001"></path><path d="M 537.4 128.6 L 545.4 128.6 545.4 136.6 537.4 136.6 Z" fill="#89A54E" stroke="#FFFFFF" stroke-width="0.000001"></path><path d="M 526.6 136.2 L 534.6 136.2 534.6 144.2 526.6 144.2 Z" fill="#89A54E" stroke="#FFFFFF" stroke-width="0.000001"></path><path d="M 515.9 136.2 L 523.9 136.2 523.9 144.2 515.9 144.2 Z" fill="#89A54E" stroke="#FFFFFF" stroke-width="0.000001"></path><path d="M 505.2 145.1 L 513.2 145.1 513.2 153.1 505.2 153.1 Z" fill="#89A54E" stroke="#FFFFFF" stroke-width="0.000001"></path><path d="M 494.5 145.1 L 502.5 145.1 502.5 153.1 494.5 153.1 Z" fill="#89A54E" stroke="#FFFFFF" stroke-width="0.000001"></path><path d="M 480.2 146.3 L 488.2 146.3 488.2 154.3 480.2 154.3 Z" fill="#89A54E" stroke="#FFFFFF" stroke-width="0.000001"></path><path d="M 468.4 146.3 L 476.4 146.3 476.4 154.3 468.4 154.3 Z" fill="#89A54E" stroke="#FFFFFF" stroke-width="0.000001"></path><path d="M 458.7 153.3 L 466.7 153.3 466.7 161.3 458.7 161.3 Z" fill="#89A54E" stroke="#FFFFFF" stroke-width="0.000001"></path><path d="M 448 152 L 456 152 456 160 448 160 Z" fill="#89A54E" stroke="#FFFFFF" stroke-width="0.000001"></path><path d="M 437.3 157.1 L 445.3 157.1 445.3 165.1 437.3 165.1 Z" fill="#89A54E" stroke="#FFFFFF" stroke-width="0.000001"></path><path d="M 428.3 166.5 L 436.3 166.5 436.3 174.5 428.3 174.5 Z" fill="#89A54E" stroke="#FFFFFF" stroke-width="0.000001"></path><path d="M 415.8 167.2 L 423.8 167.2 423.8 175.2 415.8 175.2 Z" fill="#89A54E" stroke="#FFFFFF" stroke-width="0.000001"></path><path d="M 405.1 171 L 413.1 171 413.1 179 405.1 179 Z" fill="#89A54E" stroke="#FFFFFF" stroke-width="0.000001"></path><path d="M 396.9 171 L 404.9 171 404.9 179 396.9 179 Z" fill="#89A54E" stroke="#FFFFFF" stroke-width="0.000001"></path><path d="M 384.4 182.3 L 392.4 182.3 392.4 190.3 384.4 190.3 Z" fill="#89A54E" stroke="#FFFFFF" stroke-width="0.000001"></path><path d="M 371.1 191.2 L 379.1 191.2 379.1 199.2 371.1 199.2 Z" fill="#89A54E" stroke="#FFFFFF" stroke-width="0.000001"></path><path d="M 360.4 198.1 L 368.4 198.1 368.4 206.1 360.4 206.1 Z" fill="#89A54E" stroke="#FFFFFF" stroke-width="0.000001"></path><path d="M 344.3 199.4 L 352.3 199.4 352.3 207.4 344.3 207.4 Z" fill="#89A54E" stroke="#FFFFFF" stroke-width="0.000001"></path><path d="M 339 201.9 L 347 201.9 347 209.9 339 209.9 Z" fill="#89A54E" stroke="#FFFFFF" stroke-width="0.000001"></path><path d="M 328.2 201.9 L 336.2 201.9 336.2 209.9 328.2 209.9 Z" fill="#89A54E" stroke="#FFFFFF" stroke-width="0.000001"></path><path d="M 317.5 201.9 L 325.5 201.9 325.5 209.9 317.5 209.9 Z" fill="#89A54E" stroke="#FFFFFF" stroke-width="0.000001"></path><path d="M 306.8 209.5 L 314.8 209.5 314.8 217.5 306.8 217.5 Z" fill="#89A54E" stroke="#FFFFFF" stroke-width="0.000001"></path><path d="M 296.1 210.8 L 304.1 210.8 304.1 218.8 296.1 218.8 Z" fill="#89A54E" stroke="#FFFFFF" stroke-width="0.000001"></path><path d="M 285.3 212.7 L 293.3 212.7 293.3 220.7 285.3 220.7 Z" fill="#89A54E" stroke="#FFFFFF" stroke-width="0.000001"></path><path d="M 274.6 215.2 L 282.6 215.2 282.6 223.2 274.6 223.2 Z" fill="#89A54E" stroke="#FFFFFF" stroke-width="0.000001"></path><path d="M 263.9 216.5 L 271.9 216.5 271.9 224.5 263.9 224.5 Z" fill="#89A54E" stroke="#FFFFFF" stroke-width="0.000001"></path><path d="M 249.6 232.9 L 257.6 232.9 257.6 240.9 249.6 240.9 Z" fill="#89A54E" stroke="#FFFFFF" stroke-width="0.000001"></path><path d="M 226.3 239.2 L 234.3 239.2 234.3 247.2 226.3 247.2 Z" fill="#89A54E" stroke="#FFFFFF" stroke-width="0.000001"></path><path d="M 117.8 285.3 L 125.8 285.3 125.8 293.3 117.8 293.3 Z" fill="#89A54E" stroke="#FFFFFF" stroke-width="0.000001"></path></g><g class="highcharts-series" visibility="visible" transform="translate(60,40)" clip-path="url(#highcharts-4)"><path d="M 162.9 270.4 L 235.7 270.4 235.7 245.1 L 255.4 245.1 255.4 240.7 L 296.5 240.7 296.5 233.1 L 345.3 233.1 345.3 209.1 L 382.3 209.1 382.3 183.8 L 443.1 183.8 443.1 163.6 L 457.4 163.6 457.4 152.2 L 471.9 152.2 471.9 149.1 L 478.8 149.1 478.8 130.1 L 500.8 130.1 500.8 128.2 L 507.9 128.2 507.9 125.7 L 532.7 125.7 532.7 119.4 L 541.4 119.4 541.4 116.2 L 552.1 116.2 552.1 106.8 L 563.1 106.8 563.1 101.1 L 575.6 101.1 575.6 97.9 L 589.6 97.9 589.6 90.3 L 600.4 90.3 600.4 90.3 L 616.4 90.3 616.4 85.3 L 632.5 85.3 632.5 76.4 L 637.9 76.4 637.9 76.4 L 652.2 76.4 652.2 74.5 L 659.3 74.5 659.3 74.5 L 670.1 74.5 670.1 72 L 684.4 72 684.4 72 L 694.8 72 694.8 70.1 L 707.9 70.1 707.9 70.1" fill="none" stroke="rgb(0, 0, 0)" stroke-width="5"  stroke-opacity="0.05" transform="translate(1,1)"></path><path d="M 162.9 270.4 L 235.7 270.4 235.7 245.1 L 255.4 245.1 255.4 240.7 L 296.5 240.7 296.5 233.1 L 345.3 233.1 345.3 209.1 L 382.3 209.1 382.3 183.8 L 443.1 183.8 443.1 163.6 L 457.4 163.6 457.4 152.2 L 471.9 152.2 471.9 149.1 L 478.8 149.1 478.8 130.1 L 500.8 130.1 500.8 128.2 L 507.9 128.2 507.9 125.7 L 532.7 125.7 532.7 119.4 L 541.4 119.4 541.4 116.2 L 552.1 116.2 552.1 106.8 L 563.1 106.8 563.1 101.1 L 575.6 101.1 575.6 97.9 L 589.6 97.9 589.6 90.3 L 600.4 90.3 600.4 90.3 L 616.4 90.3 616.4 85.3 L 632.5 85.3 632.5 76.4 L 637.9 76.4 637.9 76.4 L 652.2 76.4 652.2 74.5 L 659.3 74.5 659.3 74.5 L 670.1 74.5 670.1 72 L 684.4 72 684.4 72 L 694.8 72 694.8 70.1 L 707.9 70.1 707.9 70.1" fill="none" stroke="rgb(0, 0, 0)" stroke-width="3"  stroke-opacity="0.1" transform="translate(1,1)"></path><path d="M 162.9 270.4 L 235.7 270.4 235.7 245.1 L 255.4 245.1 255.4 240.7 L 296.5 240.7 296.5 233.1 L 345.3 233.1 345.3 209.1 L 382.3 209.1 382.3 183.8 L 443.1 183.8 443.1 163.6 L 457.4 163.6 457.4 152.2 L 471.9 152.2 471.9 149.1 L 478.8 149.1 478.8 130.1 L 500.8 130.1 500.8 128.2 L 507.9 128.2 507.9 125.7 L 532.7 125.7 532.7 119.4 L 541.4 119.4 541.4 116.2 L 552.1 116.2 552.1 106.8 L 563.1 106.8 563.1 101.1 L 575.6 101.1 575.6 97.9 L 589.6 97.9 589.6 90.3 L 600.4 90.3 600.4 90.3 L 616.4 90.3 616.4 85.3 L 632.5 85.3 632.5 76.4 L 637.9 76.4 637.9 76.4 L 652.2 76.4 652.2 74.5 L 659.3 74.5 659.3 74.5 L 670.1 74.5 670.1 72 L 684.4 72 684.4 72 L 694.8 72 694.8 70.1 L 707.9 70.1 707.9 70.1" fill="none" stroke="rgb(0, 0, 0)" stroke-width="1"  stroke-opacity="0.15000000000000002" transform="translate(1,1)"></path><path d="M 162.9 270.4 L 235.7 270.4 235.7 245.1 L 255.4 245.1 255.4 240.7 L 296.5 240.7 296.5 233.1 L 345.3 233.1 345.3 209.1 L 382.3 209.1 382.3 183.8 L 443.1 183.8 443.1 163.6 L 457.4 163.6 457.4 152.2 L 471.9 152.2 471.9 149.1 L 478.8 149.1 478.8 130.1 L 500.8 130.1 500.8 128.2 L 507.9 128.2 507.9 125.7 L 532.7 125.7 532.7 119.4 L 541.4 119.4 541.4 116.2 L 552.1 116.2 552.1 106.8 L 563.1 106.8 563.1 101.1 L 575.6 101.1 575.6 97.9 L 589.6 97.9 589.6 90.3 L 600.4 90.3 600.4 90.3 L 616.4 90.3 616.4 85.3 L 632.5 85.3 632.5 76.4 L 637.9 76.4 637.9 76.4 L 652.2 76.4 652.2 74.5 L 659.3 74.5 659.3 74.5 L 670.1 74.5 670.1 72 L 684.4 72 684.4 72 L 694.8 72 694.8 70.1 L 707.9 70.1 707.9 70.1" fill="none" stroke="#80699B" stroke-width="2"></path><path d="M 707.9 66.1 L 711.9 74.1 703.9 74.1 Z" fill="#80699B" stroke="#FFFFFF" stroke-width="0.000001"></path><path d="M 694.8 66.1 L 698.8 74.1 690.8 74.1 Z" fill="#80699B" stroke="#FFFFFF" stroke-width="0.000001"></path><path d="M 684.4 68 L 688.4 76 680.4 76 Z" fill="#80699B" stroke="#FFFFFF" stroke-width="0.000001"></path><path d="M 670.1 68 L 674.1 76 666.1 76 Z" fill="#80699B" stroke="#FFFFFF" stroke-width="0.000001"></path><path d="M 659.3 70.5 L 663.3 78.5 655.3 78.5 Z" fill="#80699B" stroke="#FFFFFF" stroke-width="0.000001"></path><path d="M 652.2 70.5 L 656.2 78.5 648.2 78.5 Z" fill="#80699B" stroke="#FFFFFF" stroke-width="0.000001"></path><path d="M 637.9 72.4 L 641.9 80.4 633.9 80.4 Z" fill="#80699B" stroke="#FFFFFF" stroke-width="0.000001"></path><path d="M 632.5 72.4 L 636.5 80.4 628.5 80.4 Z" fill="#80699B" stroke="#FFFFFF" stroke-width="0.000001"></path><path d="M 616.4 81.3 L 620.4 89.3 612.4 89.3 Z" fill="#80699B" stroke="#FFFFFF" stroke-width="0.000001"></path><path d="M 600.4 86.3 L 604.4 94.3 596.4 94.3 Z" fill="#80699B" stroke="#FFFFFF" stroke-width="0.000001"></path><path d="M 589.6 86.3 L 593.6 94.3 585.6 94.3 Z" fill="#80699B" stroke="#FFFFFF" stroke-width="0.000001"></path><path d="M 575.6 93.9 L 579.6 101.9 571.6 101.9 Z" fill="#80699B" stroke="#FFFFFF" stroke-width="0.000001"></path><path d="M 563.1 97.1 L 567.1 105.1 559.1 105.1 Z" fill="#80699B" stroke="#FFFFFF" stroke-width="0.000001"></path><path d="M 552.1 102.8 L 556.1 110.8 548.1 110.8 Z" fill="#80699B" stroke="#FFFFFF" stroke-width="0.000001"></path><path d="M 541.4 112.2 L 545.4 120.2 537.4 120.2 Z" fill="#80699B" stroke="#FFFFFF" stroke-width="0.000001"></path><path d="M 532.7 115.4 L 536.7 123.4 528.7 123.4 Z" fill="#80699B" stroke="#FFFFFF" stroke-width="0.000001"></path><path d="M 507.9 121.7 L 511.9 129.7 503.9 129.7 Z" fill="#80699B" stroke="#FFFFFF" stroke-width="0.000001"></path><path d="M 500.8 124.19999999999999 L 504.8 132.2 496.8 132.2 Z" fill="#80699B" stroke="#FFFFFF" stroke-width="0.000001"></path><path d="M 478.8 126.1 L 482.8 134.1 474.8 134.1 Z" fill="#80699B" stroke="#FFFFFF" stroke-width="0.000001"></path><path d="M 471.9 145.1 L 475.9 153.1 467.9 153.1 Z" fill="#80699B" stroke="#FFFFFF" stroke-width="0.000001"></path><path d="M 457.4 148.2 L 461.4 156.2 453.4 156.2 Z" fill="#80699B" stroke="#FFFFFF" stroke-width="0.000001"></path><path d="M 443.1 159.6 L 447.1 167.6 439.1 167.6 Z" fill="#80699B" stroke="#FFFFFF" stroke-width="0.000001"></path><path d="M 382.3 179.8 L 386.3 187.8 378.3 187.8 Z" fill="#80699B" stroke="#FFFFFF" stroke-width="0.000001"></path><path d="M 345.3 205.1 L 349.3 213.1 341.3 213.1 Z" fill="#80699B" stroke="#FFFFFF" stroke-width="0.000001"></path><path d="M 296.5 229.1 L 300.5 237.1 292.5 237.1 Z" fill="#80699B" stroke="#FFFFFF" stroke-width="0.000001"></path><path d="M 255.4 236.7 L 259.4 244.7 251.4 244.7 Z" fill="#80699B" stroke="#FFFFFF" stroke-width="0.000001"></path><path d="M 235.7 241.1 L 239.7 249.1 231.7 249.1 Z" fill="#80699B" stroke="#FFFFFF" stroke-width="0.000001"></path><path d="M 162.9 266.4 L 166.9 274.4 158.9 274.4 Z" fill="#80699B" stroke="#FFFFFF" stroke-width="0.000001"></path></g><g class="highcharts-series" visibility="visible" transform="translate(60,40)" clip-path="url(#highcharts-4)"><path d="M 63.8 300.7 L 156.8 300.7 156.8 261.5 L 261 261.5 261 237.5 L 355.7 237.5 355.7 200.9 L 563.3 200.9 563.3 155.4 L 652.5 155.4 652.5 151.6 L 696.6 151.6 696.6 145.3 L 743.4 145.3 743.4 137.1" fill="none" stroke="rgb(0, 0, 0)" stroke-width="5"  stroke-opacity="0.05" transform="translate(1,1)"></path><path d="M 63.8 300.7 L 156.8 300.7 156.8 261.5 L 261 261.5 261 237.5 L 355.7 237.5 355.7 200.9 L 563.3 200.9 563.3 155.4 L 652.5 155.4 652.5 151.6 L 696.6 151.6 696.6 145.3 L 743.4 145.3 743.4 137.1" fill="none" stroke="rgb(0, 0, 0)" stroke-width="3"  stroke-opacity="0.1" transform="translate(1,1)"></path><path d="M 63.8 300.7 L 156.8 300.7 156.8 261.5 L 261 261.5 261 237.5 L 355.7 237.5 355.7 200.9 L 563.3 200.9 563.3 155.4 L 652.5 155.4 652.5 151.6 L 696.6 151.6 696.6 145.3 L 743.4 145.3 743.4 137.1" fill="none" stroke="rgb(0, 0, 0)" stroke-width="1"  stroke-opacity="0.15000000000000002" transform="translate(1,1)"></path><path d="M 63.8 300.7 L 156.8 300.7 156.8 261.5 L 261 261.5 261 237.5 L 355.7 237.5 355.7 200.9 L 563.3 200.9 563.3 155.4 L 652.5 155.4 652.5 151.6 L 696.6 151.6 696.6 145.3 L 743.4 145.3 743.4 137.1" fill="none" stroke="#3D96AE" stroke-width="2"></path><path d="M 739.4 133.1 L 747.4 133.1 743.4 141.1 Z" fill="#3D96AE" stroke="#FFFFFF" stroke-width="0.000001"></path><path d="M 692.6 141.3 L 700.6 141.3 696.6 149.3 Z" fill="#3D96AE" stroke="#FFFFFF" stroke-width="0.000001"></path><path d="M 648.5 147.6 L 656.5 147.6 652.5 155.6 Z" fill="#3D96AE" stroke="#FFFFFF" stroke-width="0.000001"></path><path d="M 559.3 151.4 L 567.3 151.4 563.3 159.4 Z" fill="#3D96AE" stroke="#FFFFFF" stroke-width="0.000001"></path><path d="M 351.7 196.9 L 359.7 196.9 355.7 204.9 Z" fill="#3D96AE" stroke="#FFFFFF" stroke-width="0.000001"></path><path d="M 257 233.5 L 265 233.5 261 241.5 Z" fill="#3D96AE" stroke="#FFFFFF" stroke-width="0.000001"></path><path d="M 152.8 257.5 L 160.8 257.5 156.8 265.5 Z" fill="#3D96AE" stroke="#FFFFFF" stroke-width="0.000001"></path><path d="M 59.8 296.7 L 67.8 296.7 63.8 304.7 Z" fill="#3D96AE" stroke="#FFFFFF" stroke-width="0.000001"></path></g></g><text x="430" y="25" style="font-family:'helveticaneue-light', 'helvetica neue light', 'helvetica neue', 'helvetica', 'arial', 'lucida grande', sans-serif;font-size:16px;color:#3e576f;fill:#3e576f;" text-anchor="middle" class="highcharts-title" ><tspan x="430">HTML5test.com score over the years</tspan></text><g class="highcharts-legend"  transform="translate(277,471)"><text x="30" y="18" style="font-family:'helveticaneue-light', 'helvetica neue light', 'helvetica neue', 'helvetica', 'arial', 'lucida grande', sans-serif;font-size:12px;cursor:pointer;color:#3e576f;fill:#3e576f;" text-anchor="start" ><tspan x="30">Chrome</tspan></text><path d="M -21 0 L -5 0" fill="none" stroke-width="2"  stroke="#4572A7" transform="translate(30,14)"></path><text x="100" y="18" style="font-family:'helveticaneue-light', 'helvetica neue light', 'helvetica neue', 'helvetica', 'arial', 'lucida grande', sans-serif;font-size:12px;cursor:pointer;color:#3e576f;fill:#3e576f;" text-anchor="start" ><tspan x="100">Edge</tspan></text><path d="M -21 0 L -5 0" fill="none" stroke-width="2"  stroke="#AA4643" transform="translate(100,14)"></path><text x="155" y="18" style="font-family:'helveticaneue-light', 'helvetica neue light', 'helvetica neue', 'helvetica', 'arial', 'lucida grande', sans-serif;font-size:12px;cursor:pointer;color:#3e576f;fill:#3e576f;" text-anchor="start" ><tspan x="155">Firefox</tspan></text><path d="M -21 0 L -5 0" fill="none" stroke-width="2"  stroke="#89A54E" transform="translate(155,14)"></path><text x="219" y="18" style="font-family:'helveticaneue-light', 'helvetica neue light', 'helvetica neue', 'helvetica', 'arial', 'lucida grande', sans-serif;font-size:12px;cursor:pointer;color:#3e576f;fill:#3e576f;" text-anchor="start" ><tspan x="219">Opera</tspan></text><path d="M -21 0 L -5 0" fill="none" stroke-width="2"  stroke="#80699B" transform="translate(219,14)"></path><text x="279" y="18" style="font-family:'helveticaneue-light', 'helvetica neue light', 'helvetica neue', 'helvetica', 'arial', 'lucida grande', sans-serif;font-size:12px;cursor:pointer;color:#3e576f;fill:#3e576f;" text-anchor="start" ><tspan x="279">Safari</tspan></text><path d="M -21 0 L -5 0" fill="none" stroke-width="2"  stroke="#3D96AE" transform="translate(279,14)"></path><path d="M 17 10 C 22.328 10 22.328 18 17 18 C 11.672 18 11.672 10 17 10 Z" fill="#4572A7"  stroke="#4572A7"></path><path d="M 87 10 L 91 14 87 18 83 14 Z" fill="#AA4643"  stroke="#AA4643"></path><path d="M 138 10 L 146 10 146 18 138 18 Z" fill="#89A54E"  stroke="#89A54E"></path><path d="M 206 10 L 210 18 202 18 Z" fill="#80699B"  stroke="#80699B"></path><path d="M 262 10 L 270 10 266 18 Z" fill="#3D96AE"  stroke="#3D96AE"></path></g><g class="highcharts-axis" ><text x="176.70109224438605" y="433" style="font-family:'helveticaneue-light', 'helvetica neue light', 'helvetica neue', 'helvetica', 'arial', 'lucida grande', sans-serif;font-size:11px;color:#666;line-height:14px;fill:#666;" text-anchor="middle" visibility="visible"><tspan x="176.70109224438605">Jan 2010</tspan></text><text x="83.49343651309303" y="433" style="font-family:'helveticaneue-light', 'helvetica neue light', 'helvetica neue', 'helvetica', 'arial', 'lucida grande', sans-serif;font-size:11px;color:#666;line-height:14px;fill:#666;" text-anchor="middle" visibility="visible"><tspan x="83.49343651309303">Jan 2009</tspan></text><text x="269.90874797567903" y="433" style="font-family:'helveticaneue-light', 'helvetica neue light', 'helvetica neue', 'helvetica', 'arial', 'lucida grande', sans-serif;font-size:11px;color:#666;line-height:14px;fill:#666;" text-anchor="middle" visibility="visible"><tspan x="269.90874797567903">Jan 2011</tspan></text><text x="363.11640370697205" y="433" style="font-family:'helveticaneue-light', 'helvetica neue light', 'helvetica neue', 'helvetica', 'arial', 'lucida grande', sans-serif;font-size:11px;color:#666;line-height:14px;fill:#666;" text-anchor="middle" visibility="visible"><tspan x="363.11640370697205">Jan 2012</tspan></text><text x="456.57942287862477" y="433" style="font-family:'helveticaneue-light', 'helvetica neue light', 'helvetica neue', 'helvetica', 'arial', 'lucida grande', sans-serif;font-size:11px;color:#666;line-height:14px;fill:#666;" text-anchor="middle" visibility="visible"><tspan x="456.57942287862477">Jan 2013</tspan></text><text x="549.7870786099178" y="433" style="font-family:'helveticaneue-light', 'helvetica neue light', 'helvetica neue', 'helvetica', 'arial', 'lucida grande', sans-serif;font-size:11px;color:#666;line-height:14px;fill:#666;" text-anchor="middle" visibility="visible"><tspan x="549.7870786099178">Jan 2014</tspan></text><text x="642.9947343412108" y="433" style="font-family:'helveticaneue-light', 'helvetica neue light', 'helvetica neue', 'helvetica', 'arial', 'lucida grande', sans-serif;font-size:11px;color:#666;line-height:14px;fill:#666;" text-anchor="middle" visibility="visible"><tspan x="642.9947343412108">Jan 2015</tspan></text><text x="736.2023900725038" y="433" style="font-family:'helveticaneue-light', 'helvetica neue light', 'helvetica neue', 'helvetica', 'arial', 'lucida grande', sans-serif;font-size:11px;color:#666;line-height:14px;fill:#666;" text-anchor="middle" visibility="visible"><tspan x="736.2023900725038">Jan 2016</tspan></text><text x="827.5" y="433" style="font-family:'helveticaneue-light', 'helvetica neue light', 'helvetica neue', 'helvetica', 'arial', 'lucida grande', sans-serif;font-size:11px;color:#666;line-height:14px;fill:#666;" text-anchor="middle" visibility="visible"><tspan x="827.5">Jan 2017</tspan></text><path d="M 177.5 419 L 177.5 424" fill="none" stroke="#C0D0E0" stroke-width="1"></path><path d="M 270.5 419 L 270.5 424" fill="none" stroke="#C0D0E0" stroke-width="1"></path><path d="M 363.5 419 L 363.5 424" fill="none" stroke="#C0D0E0" stroke-width="1"></path><path d="M 457.5 419 L 457.5 424" fill="none" stroke="#C0D0E0" stroke-width="1"></path><path d="M 550.5 419 L 550.5 424" fill="none" stroke="#C0D0E0" stroke-width="1"></path><path d="M 643.5 419 L 643.5 424" fill="none" stroke="#C0D0E0" stroke-width="1"></path><path d="M 736.5 419 L 736.5 424" fill="none" stroke="#C0D0E0" stroke-width="1"></path><path d="M 830.5 419 L 830.5 424" fill="none" stroke="#C0D0E0" stroke-width="1"></path><path d="M 83.5 419 L 83.5 424" fill="none" stroke="#C0D0E0" stroke-width="1"></path></g><g class="highcharts-axis" ><text x="52" y="425.6" style="font-family:'helveticaneue-light', 'helvetica neue light', 'helvetica neue', 'helvetica', 'arial', 'lucida grande', sans-serif;font-size:11px;width:375px;color:#666;line-height:14px;fill:#666;" text-anchor="end" visibility="visible"><tspan x="52">0</tspan></text><text x="52" y="362.43333333333334" style="font-family:'helveticaneue-light', 'helvetica neue light', 'helvetica neue', 'helvetica', 'arial', 'lucida grande', sans-serif;font-size:11px;width:375px;color:#666;line-height:14px;fill:#666;" text-anchor="end" visibility="visible"><tspan x="52">100</tspan></text><text x="52" y="299.26666666666665" style="font-family:'helveticaneue-light', 'helvetica neue light', 'helvetica neue', 'helvetica', 'arial', 'lucida grande', sans-serif;font-size:11px;width:375px;color:#666;line-height:14px;fill:#666;" text-anchor="end" visibility="visible"><tspan x="52">200</tspan></text><text x="52" y="236.1" style="font-family:'helveticaneue-light', 'helvetica neue light', 'helvetica neue', 'helvetica', 'arial', 'lucida grande', sans-serif;font-size:11px;width:375px;color:#666;line-height:14px;fill:#666;" text-anchor="end" visibility="visible"><tspan x="52">300</tspan></text><text x="52" y="172.9333333333333" style="font-family:'helveticaneue-light', 'helvetica neue light', 'helvetica neue', 'helvetica', 'arial', 'lucida grande', sans-serif;font-size:11px;width:375px;color:#666;line-height:14px;fill:#666;" text-anchor="end" visibility="visible"><tspan x="52">400</tspan></text><text x="52" y="109.76666666666662" style="font-family:'helveticaneue-light', 'helvetica neue light', 'helvetica neue', 'helvetica', 'arial', 'lucida grande', sans-serif;font-size:11px;width:375px;color:#666;line-height:14px;fill:#666;" text-anchor="end" visibility="visible"><tspan x="52">500</tspan></text><text x="52" y="46.6" style="font-family:'helveticaneue-light', 'helvetica neue light', 'helvetica neue', 'helvetica', 'arial', 'lucida grande', sans-serif;font-size:11px;width:375px;color:#666;line-height:14px;fill:#666;" text-anchor="end" visibility="visible"><tspan x="52">600</tspan></text></g><text x="24" y="229.5" style="font-family:'helveticaneue-light', 'helvetica neue light', 'helvetica neue', 'helvetica', 'arial', 'lucida grande', sans-serif;font-size:12px;color:#6d869f;font-weight:bold;fill:#6d869f;"  transform="rotate(270 24 229)" text-anchor="middle" visibility="visible"><tspan x="24">Score (points)</tspan></text><path d="M 60 419.5 L 850 419.5" fill="none" stroke="#C0D0E0" stroke-width="1"  visibility="visible"></path><g  style="padding:0;white-space:nowrap;" visibility="hidden"><rect rx="5" ry="5" fill="none" x="0" y="0" width="0" height="0" stroke-width="5" fill-opacity="0.85" anchorX="0" anchorY="0"  stroke="rgb(0, 0, 0)" stroke-opacity="0.05" transform="translate(1,1)"></rect><rect rx="5" ry="5" fill="none" x="0" y="0" width="0" height="0" stroke-width="3" fill-opacity="0.85" anchorX="0" anchorY="0"  stroke="rgb(0, 0, 0)" stroke-opacity="0.1" transform="translate(1,1)"></rect><rect rx="5" ry="5" fill="none" x="0" y="0" width="0" height="0" stroke-width="1" fill-opacity="0.85" anchorX="0" anchorY="0"  stroke="rgb(0, 0, 0)" stroke-opacity="0.15000000000000002" transform="translate(1,1)"></rect><rect rx="5" ry="5" fill="rgb(255,255,255)" x="0" y="0" width="0" height="0" stroke-width="2" fill-opacity="0.85" anchorX="0" anchorY="0"></rect><text x="0" y="13" style="font-family:'helveticaneue-light', 'helvetica neue light', 'helvetica neue', 'helvetica', 'arial', 'lucida grande', sans-serif;font-size:12px;color:#333333;fill:#333333;" ></text></g><g class="highcharts-tracker" ><g  transform="translate(60,40)" clip-path="url(#highcharts-4)"><path d="M 265.8 209.1 L 275.8 209.1 L 298.3 209.1 298.3 199.6 L 312.8 199.6 312.8 199.6 L 325.3 199.6 325.3 195.8 L 337.6 195.8 337.6 194.6 L 348.3 194.6 348.3 184.4 L 357.3 184.4 357.3 177.5 L 371.6 177.5 371.6 175.6 L 382.3 175.6 382.3 155.4 L 398.9 155.4 398.9 147.8 L 405.5 147.8 405.5 135.8 L 418 135.8 418 133.3 L 432.6 133.3 432.6 133.3 L 444.8 133.3 444.8 133.3 L 455.6 133.3 455.6 133.3 L 466.3 133.3 466.3 130.1 L 477 130.1 477 125.7 L 493.1 125.7 493.1 123.8 L 502.6 123.8 502.6 120 L 514.6 120 514.6 116.9 L 525.3 116.9 525.3 115.6 L 539.8 115.6 539.8 112.4 L 553.9 112.4 553.9 106.1 L 561 106.1 561 98.5 L 571.8 98.5 571.8 97.3 L 588.1 97.3 588.1 91 L 598.6 91 598.6 85.9 L 609.3 85.9 609.3 79 L 618.2 79 618.2 76.4 L 634.3 76.4 634.3 76.4 L 645 76.4 645 74.5 L 655.8 74.5 655.8 74.5 L 668.3 74.5 668.3 72 L 681.1 72 681.1 72 L 691.8 72 691.8 70.1 L 702.5 70.1 702.5 70.1 L 713.2 70.1 713.2 68.2 L 727.5 68.2 727.5 68.2 L 737.5 68.2" fill="none"  stroke-opacity="0.000001" stroke="rgb(192,192,192)" stroke-linejoin="bevel" stroke-width="22" visibility="visible" style=""></path></g><g  transform="translate(60,40)" clip-path="url(#highcharts-4)"><path d="M -671.9 367 L -661.9 367 L -182.3 367 -182.3 367 L 43.2 367 43.2 358.2 L 228.3 358.2 228.3 307.6 L 379.5 307.6 379.5 211.6 L 470.4 211.6 470.4 181.9 L 636.4 181.9 636.4 140.9 L 661.6 140.9 661.6 105.5 L 730.9 105.5 730.9 88.4 L 782.2 88.4 782.2 80.2 L 792.2 80.2" fill="none"  stroke-opacity="0.000001" stroke="rgb(192,192,192)" stroke-linejoin="bevel" stroke-width="22" visibility="visible" style=""></path></g><g  transform="translate(60,40)" clip-path="url(#highcharts-4)"><path d="M 111.8 289.3 L 121.8 289.3 L 230.3 289.3 230.3 243.2 L 253.6 243.2 253.6 236.9 L 267.9 236.9 267.9 220.5 L 278.6 220.5 278.6 219.2 L 289.3 219.2 289.3 216.7 L 300.1 216.7 300.1 214.8 L 310.8 214.8 310.8 213.5 L 321.5 213.5 321.5 205.9 L 332.2 205.9 332.2 205.9 L 343 205.9 343 205.9 L 348.3 205.9 348.3 203.4 L 364.4 203.4 364.4 202.1 L 375.1 202.1 375.1 195.2 L 388.4 195.2 388.4 186.3 L 400.9 186.3 400.9 175 L 409.1 175 409.1 175 L 419.8 175 419.8 171.2 L 432.3 171.2 432.3 170.5 L 441.3 170.5 441.3 161.1 L 452 161.1 452 156 L 462.7 156 462.7 157.3 L 472.4 157.3 472.4 150.3 L 484.2 150.3 484.2 150.3 L 498.5 150.3 498.5 149.1 L 509.2 149.1 509.2 149.1 L 519.9 149.1 519.9 140.2 L 530.6 140.2 530.6 140.2 L 541.4 140.2 541.4 132.6 L 552.1 132.6 552.1 132 L 562.8 132 562.8 132 L 575.1 132 575.1 128.2 L 586.3 128.2 586.3 128.2 L 596.8 128.2 596.8 125.1 L 605.7 125.1 605.7 125.1 L 616.4 125.1 616.4 113.7 L 629.5 113.7 629.5 108 L 639.7 108 639.7 108 L 650.4 108 650.4 108 L 661.1 108 661.1 104.9 L 671.9 104.9 671.9 103.6 L 682.6 103.6 682.6 91.6 L 693.3 91.6 693.3 91 L 705.8 91 705.8 91 L 716.5 91 716.5 91 L 730.9 91 730.9 87.8 L 740.9 87.8" fill="none"  stroke-opacity="0.000001" stroke="rgb(192,192,192)" stroke-linejoin="bevel" stroke-width="22" visibility="visible" style=""></path></g><g  transform="translate(60,40)" clip-path="url(#highcharts-4)"><path d="M 152.9 270.4 L 162.9 270.4 L 235.7 270.4 235.7 245.1 L 255.4 245.1 255.4 240.7 L 296.5 240.7 296.5 233.1 L 345.3 233.1 345.3 209.1 L 382.3 209.1 382.3 183.8 L 443.1 183.8 443.1 163.6 L 457.4 163.6 457.4 152.2 L 471.9 152.2 471.9 149.1 L 478.8 149.1 478.8 130.1 L 500.8 130.1 500.8 128.2 L 507.9 128.2 507.9 125.7 L 532.7 125.7 532.7 119.4 L 541.4 119.4 541.4 116.2 L 552.1 116.2 552.1 106.8 L 563.1 106.8 563.1 101.1 L 575.6 101.1 575.6 97.9 L 589.6 97.9 589.6 90.3 L 600.4 90.3 600.4 90.3 L 616.4 90.3 616.4 85.3 L 632.5 85.3 632.5 76.4 L 637.9 76.4 637.9 76.4 L 652.2 76.4 652.2 74.5 L 659.3 74.5 659.3 74.5 L 670.1 74.5 670.1 72 L 684.4 72 684.4 72 L 694.8 72 694.8 70.1 L 707.9 70.1 707.9 70.1 L 717.9 70.1" fill="none"  stroke-opacity="0.000001" stroke="rgb(192,192,192)" stroke-linejoin="bevel" stroke-width="22" visibility="visible" style=""></path></g><g  transform="translate(60,40)" clip-path="url(#highcharts-4)"><path d="M 53.8 300.7 L 63.8 300.7 L 156.8 300.7 156.8 261.5 L 261 261.5 261 237.5 L 355.7 237.5 355.7 200.9 L 563.3 200.9 563.3 155.4 L 652.5 155.4 652.5 151.6 L 696.6 151.6 696.6 145.3 L 743.4 145.3 743.4 137.1 L 753.4 137.1" fill="none"  stroke-opacity="0.000001" stroke="rgb(192,192,192)" stroke-linejoin="bevel" stroke-width="22" visibility="visible" style=""></path></g></g></svg>